<?xml version="1.0" encoding="UTF-8" standalone="no"?>
<!-- Created with Inkscape (http://www.inkscape.org/) -->

<svg
   width="39.6875mm"
   height="30.23271mm"
   viewBox="0 0 39.6875 30.23271"
   version="1.1"
   id="svg36679"
   inkscape:version="1.1 (1:1.1+202105261517+ce6663b3b7)"
   sodipodi:docname="drawing-1.svg"
   inkscape:export-filename="/home/cleo/Desktop/logo.png"
   inkscape:export-xdpi="96"
   inkscape:export-ydpi="96"
   xmlns:inkscape="http://www.inkscape.org/namespaces/inkscape"
   xmlns:sodipodi="http://sodipodi.sourceforge.net/DTD/sodipodi-0.dtd"
   xmlns="http://www.w3.org/2000/svg"
   xmlns:svg="http://www.w3.org/2000/svg">
  <sodipodi:namedview
     id="namedview36681"
     pagecolor="#ffffff"
     bordercolor="#666666"
     borderopacity="1.0"
     inkscape:pageshadow="2"
     inkscape:pageopacity="0.0"
     inkscape:pagecheckerboard="0"
     inkscape:document-units="mm"
     showgrid="false"
     inkscape:zoom="0.75187991"
     inkscape:cx="-81.794977"
     inkscape:cy="152.28496"
     inkscape:window-width="1848"
     inkscape:window-height="1016"
     inkscape:window-x="72"
     inkscape:window-y="27"
     inkscape:window-maximized="1"
     inkscape:current-layer="layer1" />
  <defs
     id="defs36676">
    <filter
       inkscape:collect="always"
       style="color-interpolation-filters:sRGB"
       id="filter36548"
       x="-0.030879583"
       y="-0.041335019"
       width="1.0617592"
       height="1.08267">
      <feGaussianBlur
         inkscape:collect="always"
         stdDeviation="1.8763354"
         id="feGaussianBlur36550" />
    </filter>
  </defs>
  <g
     inkscape:label="Layer 1"
     inkscape:groupmode="layer"
     id="layer1"
     transform="translate(-126.54488,-108.39904)">
    <g
       id="g36554"
       transform="matrix(0.96875718,0,0,0.96875718,122.33872,-114.92133)">
      <path
         id="path36528"
         style="color:#000000;fill:#000000;fill-opacity:1;stroke-width:3.77953;stroke-linecap:round;stroke-linejoin:round;-inkscape-stroke:none;filter:url(#filter36548)"
         d="m 101.52344,875.76953 a 1.7510327,2.284809 48.800075 0 0 -2.529299,2.00781 l -3.708985,14.15235 a 1.7510327,2.284809 48.800075 0 0 1.462891,1.98437 h 17.509763 a 1.7510327,2.284809 48.800075 0 0 2.53321,-2 l 3.77343,-14.14258 a 1.7510327,2.284809 48.800075 0 0 -1.46484,-2.00195 z m -58.326174,21.72656 a 1.9422376,1.9422376 0 0 0 -1.597657,0.83789 l -20.341797,29.51758 a 1.9422376,1.9422376 0 0 0 0,2.20899 l 20.720704,30.0332 a 1.9422376,1.9422376 0 0 0 1.599609,0.83984 h 21.052734 a 1.9422376,1.9422376 0 0 0 1.597657,-3.05273 L 46.099609,928.94336 65.441406,900.5293 a 1.9422376,1.9422376 0 0 0 -1.607422,-3.03321 z m 52.376953,0.56836 a 1.7510327,2.284809 48.800075 0 0 -2.527344,2 l -15.775391,59.36524 a 1.7510327,2.284809 48.800075 0 0 1.458985,2 h 17.509765 a 1.7510327,2.284809 48.800075 0 0 2.533204,-2 l 15.841792,-59.36524 a 1.7510327,2.284809 48.800075 0 0 -1.46484,-2 z m 28.250001,0.1211 a 1.9422376,1.9422376 0 0 0 -1.60742,3.0332 l 19.34179,28.41406 -20.1289,28.9375 a 1.9422376,1.9422376 0 0 0 1.59765,3.05274 h 21.05274 a 1.9422376,1.9422376 0 0 0 1.59961,-0.83985 l 20.7207,-30.0332 a 1.9422376,1.9422376 0 0 0 0,-2.20703 l -20.3418,-29.51758 a 1.9422376,1.9422376 0 0 0 -1.59961,-0.83984 z m -46.328126,66.88867 a 1.7510381,2.2848161 48.800075 0 0 -2.533203,3 l 2.427734,7.82031 2.429687,7.82031 a 1.7510381,2.2848161 48.800075 0 0 3.462891,0 l 6.601563,-7.82031 6.603515,-7.82031 a 1.7510381,2.2848161 48.800075 0 0 -0.93164,-3 h -9.03125 z"
         transform="scale(0.26458333)" />
      <path
         id="path36521"
         style="color:#000000;fill:#feee1c;fill-opacity:1;stroke-width:3.77953;stroke-linecap:round;stroke-linejoin:round;-inkscape-stroke:none"
         d="m 101.52344,875.76953 a 1.7510327,2.284809 48.800075 0 0 -2.529299,2.00781 l -3.708985,14.15235 a 1.7510327,2.284809 48.800075 0 0 1.462891,1.98437 h 17.509763 a 1.7510327,2.284809 48.800075 0 0 2.53321,-2 l 3.77343,-14.14258 a 1.7510327,2.284809 48.800075 0 0 -1.46484,-2.00195 z m -58.326174,21.72656 a 1.9422376,1.9422376 0 0 0 -1.597657,0.83789 l -20.341797,29.51758 a 1.9422376,1.9422376 0 0 0 0,2.20899 l 20.720704,30.0332 a 1.9422376,1.9422376 0 0 0 1.599609,0.83984 h 21.052734 a 1.9422376,1.9422376 0 0 0 1.597657,-3.05273 L 46.099609,928.94336 65.441406,900.5293 a 1.9422376,1.9422376 0 0 0 -1.607422,-3.03321 z m 52.376953,0.56836 a 1.7510327,2.284809 48.800075 0 0 -2.527344,2 l -15.775391,59.36524 a 1.7510327,2.284809 48.800075 0 0 1.458985,2 h 17.509765 a 1.7510327,2.284809 48.800075 0 0 2.533204,-2 l 15.841792,-59.36524 a 1.7510327,2.284809 48.800075 0 0 -1.46484,-2 z m 28.250001,0.1211 a 1.9422376,1.9422376 0 0 0 -1.60742,3.0332 l 19.34179,28.41406 -20.1289,28.9375 a 1.9422376,1.9422376 0 0 0 1.59765,3.05274 h 21.05274 a 1.9422376,1.9422376 0 0 0 1.59961,-0.83985 l 20.7207,-30.0332 a 1.9422376,1.9422376 0 0 0 0,-2.20703 l -20.3418,-29.51758 a 1.9422376,1.9422376 0 0 0 -1.59961,-0.83984 z m -46.328126,66.88867 a 1.7510381,2.2848161 48.800075 0 0 -2.533203,3 l 2.427734,7.82031 2.429687,7.82031 a 1.7510381,2.2848161 48.800075 0 0 3.462891,0 l 6.601563,-7.82031 6.603515,-7.82031 a 1.7510381,2.2848161 48.800075 0 0 -0.93164,-3 h -9.03125 z"
         transform="scale(0.26458333)" />
    </g>
  </g>
</svg>
